Coming Together (1984)

Cover: 
http://imagebb.org/view.php?filename=535746736351_tduid2885_ki.jpg

Preview: 
http://imagebb.org/view.php?filename=895Coming_Together_1984_s.jpg

Info:
After a vigorous morning workout, Tracy senses trouble in her marriage with husband Mark and looks forward to a visit from her college roommate Roxie. An orgy and hot sex are on the menu as they start Coming Together to avoid coming apart.
Director:
Paul G. Vatelli

Actresses:
* Colleen Brennan [Facial]
* Jacy Allen
* Kimberly Carson
* Kristara Barrington
* Lisa Lake [BJOnly]
* Renee Summers [Facial]

Actors:
* David Sanders
* Craig Roberts (as Greg Ruffner)
* Hershel Savage (as Herschel Savage)
* Marc Wallice

Scene Breakdowns:
* Scene 1. Colleen Brennan, Hershel Savage
* Scene 2. Kimberly Carson
* Scene 3. Renee Summers, Hershel Savage
* Scene 4. Kimberly Carson, Craig Roberts
* Scene 5. girl, Kristara Barrington, Marc Wallice
* Scene 6. Lisa Lake, David Sanders
* Scene 7. Jacy Allen, Kimberly Carson, Craig Roberts
* Scene 8. girl
* Scene 9. Colleen Brennan, Craig Roberts
* Scene 10. Colleen Brennan, Kimberly Carson


Format                           : AVI
Format/Info                      : Audio Video Interleave
File size                        : 1.08 GiB
Duration                         : 1h 15mn
Overall bit rate mode            : Variable
Overall bit rate                 : 2 039 Kbps
Writing application              : VideoChargePro(3.8.0.00)

Video
ID                               : 0
Format                           : MPEG-4 Visual
Format profile                   : Advanced Simple@L5
Format settings, BVOP            : 1
Format settings, QPel            : No
Format settings, GMC             : No warppoints
Format settings, Matrix          : Custom
Codec ID                         : XVID
Codec ID/Hint                    : XviD
Duration                         : 1h 15mn
Bit rate                         : 1 767 Kbps
Width                            : 720 pixels
Height                           : 544 pixels
Display aspect ratio             : 4:3
Frame rate                       : 23.976 fps
Color space                      : YUV
Chroma subsampling               : 4:2:0
Bit depth                        : 8 bits
Scan type                        : Progressive
Compression mode                 : Lossy
Bits/(Pixel*Frame)               : 0.188
Stream size                      : 955 MiB (87%)
Writing library                  : XviD 1.2.0SMP (UTC 2006-01-08)

Audio
ID                               : 1
Format                           : MPEG Audio
Format version                   : Version 1
Format profile                   : Layer 3
Mode                             : Joint stereo
Mode extension                   : MS Stereo
Codec ID                         : 55
Codec ID/Hint                    : MP3
Duration                         : 1h 15mn
Bit rate mode                    : Variable
Bit rate                         : 182 Kbps
Nominal bit rate                 : 192 Kbps
Channel(s)                       : 2 channels
Sampling rate                    : 48.0 KHz
Compression mode                 : Lossy
Stream size                      : 98.5 MiB (9%)
Alignment                        : Aligned on interleaves
Writing library                  : LAME3.97b
Encoding settings                : -m j -V 4 -q 2 -lowpass 18.6 --abr 192

